# xmcd CD database file
#
# Track frame offsets:
#	150
#	29805
#	60762
#	86905
#	117567
#	142420
#
# Disc length: 2219 seconds
#
# Revision: 0
# Processed by: cddbd v1.5.2PL0 Copyright (c) Steve Scherf et al.
# Submitted via: CDex 1.70beta3
#
DISCID=5a08a906
DTITLE=Art Taylor - A.T.'s Delight
DYEAR=1960
DGENRE=Jazz
TTITLE0=Syeeda's Song Flute
TTITLE1=Epistrophy
TTITLE2=Move
TTITLE3=High Seas
TTITLE4=Cookoo And Fungi
TTITLE5=Blue Interlude
EXTD=YEAR: 1960
EXTT0=
EXTT1=
EXTT2=
EXTT3=
EXTT4=
EXTT5=
PLAYORDER=
